<svg width="1em" height="1em" viewBox="0 0 256 256" xmlns="http://www.w3.org/2000/svg">
	<path
		fill="currentColor"
		opacity="0.65"
		d="M55.491 30.1723C84.841 52.2073 116.408 96.8843 128 120.858C139.592 96.8843 171.159 52.2073 200.509 30.1723C221.686 14.2733 256 1.97225 256 41.1163C256 48.9343 251.518 106.79 248.889 116.184C239.751 148.838 206.453 157.167 176.832 152.126C228.607 160.938 241.778 190.126 213.333 219.313C159.312 274.746 135.689 205.405 129.637 187.637C128.527 184.38 128.007 182.857 128 184.152C127.992 182.856 127.473 184.38 126.363 187.637C120.311 205.405 96.688 274.747 42.667 219.313C14.222 190.126 27.393 160.938 79.167 152.126C49.547 157.167 16.249 148.838 7.111 116.184C4.482 106.79 0 48.9343 0 41.1163C0 1.97225 34.314 14.2733 55.491 30.1723Z"
	/>
</svg>
